<svg width="20" height="21" viewBox="0 0 20 21" fill="none" xmlns="http://www.w3.org/2000/svg">
<path d="M1.875 1.65186C1.70924 1.65186 1.55027 1.7177 1.43306 1.83491C1.31585 1.95212 1.25 2.1111 1.25 2.27686V6.02686C1.25 6.19262 1.18415 6.35159 1.06694 6.4688C0.949732 6.58601 0.79076 6.65186 0.625 6.65186C0.45924 6.65186 0.300269 6.58601 0.183058 6.4688C0.065848 6.35159 0 6.19262 0 6.02686V2.27686C0 1.77957 0.197544 1.30266 0.549175 0.95103C0.900805 0.5994 1.37772 0.401855 1.875 0.401855L5.625 0.401855C5.79076 0.401855 5.94973 0.467704 6.06694 0.584914C6.18415 0.702124 6.25 0.861095 6.25 1.02686C6.25 1.19262 6.18415 1.35159 6.06694 1.4688C5.94973 1.58601 5.79076 1.65186 5.625 1.65186H1.875ZM13.75 1.02686C13.75 0.861095 13.8158 0.702124 13.9331 0.584914C14.0503 0.467704 14.2092 0.401855 14.375 0.401855L18.125 0.401855C18.6223 0.401855 19.0992 0.5994 19.4508 0.95103C19.8025 1.30266 20 1.77957 20 2.27686V6.02686C20 6.19262 19.9342 6.35159 19.8169 6.4688C19.6997 6.58601 19.5408 6.65186 19.375 6.65186C19.2092 6.65186 19.0503 6.58601 18.9331 6.4688C18.8158 6.35159 18.75 6.19262 18.75 6.02686V2.27686C18.75 2.1111 18.6842 1.95212 18.5669 1.83491C18.4497 1.7177 18.2908 1.65186 18.125 1.65186H14.375C14.2092 1.65186 14.0503 1.58601 13.9331 1.4688C13.8158 1.35159 13.75 1.19262 13.75 1.02686ZM0.625 14.1519C0.79076 14.1519 0.949732 14.2177 1.06694 14.3349C1.18415 14.4521 1.25 14.6111 1.25 14.7769V18.5269C1.25 18.6926 1.31585 18.8516 1.43306 18.9688C1.55027 19.086 1.70924 19.1519 1.875 19.1519H5.625C5.79076 19.1519 5.94973 19.2177 6.06694 19.3349C6.18415 19.4521 6.25 19.6111 6.25 19.7769C6.25 19.9426 6.18415 20.1016 6.06694 20.2188C5.94973 20.336 5.79076 20.4019 5.625 20.4019H1.875C1.37772 20.4019 0.900805 20.2043 0.549175 19.8527C0.197544 19.5011 0 19.0241 0 18.5269L0 14.7769C0 14.6111 0.065848 14.4521 0.183058 14.3349C0.300269 14.2177 0.45924 14.1519 0.625 14.1519ZM19.375 14.1519C19.5408 14.1519 19.6997 14.2177 19.8169 14.3349C19.9342 14.4521 20 14.6111 20 14.7769V18.5269C20 19.0241 19.8025 19.5011 19.4508 19.8527C19.0992 20.2043 18.6223 20.4019 18.125 20.4019H14.375C14.2092 20.4019 14.0503 20.336 13.9331 20.2188C13.8158 20.1016 13.75 19.9426 13.75 19.7769C13.75 19.6111 13.8158 19.4521 13.9331 19.3349C14.0503 19.2177 14.2092 19.1519 14.375 19.1519H18.125C18.2908 19.1519 18.4497 19.086 18.5669 18.9688C18.6842 18.8516 18.75 18.6926 18.75 18.5269V14.7769C18.75 14.6111 18.8158 14.4521 18.9331 14.3349C19.0503 14.2177 19.2092 14.1519 19.375 14.1519ZM3.75 6.02686C3.75 5.86109 3.81585 5.70212 3.93306 5.58491C4.05027 5.4677 4.20924 5.40186 4.375 5.40186C4.54076 5.40186 4.69973 5.4677 4.81694 5.58491C4.93415 5.70212 5 5.86109 5 6.02686V14.7769C5 14.9426 4.93415 15.1016 4.81694 15.2188C4.69973 15.336 4.54076 15.4019 4.375 15.4019C4.20924 15.4019 4.05027 15.336 3.93306 15.2188C3.81585 15.1016 3.75 14.9426 3.75 14.7769V6.02686ZM6.25 6.02686C6.25 5.86109 6.31585 5.70212 6.43306 5.58491C6.55027 5.4677 6.70924 5.40186 6.875 5.40186C7.04076 5.40186 7.19973 5.4677 7.31694 5.58491C7.43415 5.70212 7.5 5.86109 7.5 6.02686V14.7769C7.5 14.9426 7.43415 15.1016 7.31694 15.2188C7.19973 15.336 7.04076 15.4019 6.875 15.4019C6.70924 15.4019 6.55027 15.336 6.43306 15.2188C6.31585 15.1016 6.25 14.9426 6.25 14.7769V6.02686ZM8.75 6.02686C8.75 5.86109 8.81585 5.70212 8.93306 5.58491C9.05027 5.4677 9.20924 5.40186 9.375 5.40186C9.54076 5.40186 9.69973 5.4677 9.81694 5.58491C9.93415 5.70212 10 5.86109 10 6.02686V14.7769C10 14.9426 9.93415 15.1016 9.81694 15.2188C9.69973 15.336 9.54076 15.4019 9.375 15.4019C9.20924 15.4019 9.05027 15.336 8.93306 15.2188C8.81585 15.1016 8.75 14.9426 8.75 14.7769V6.02686ZM11.25 6.02686C11.25 5.86109 11.3158 5.70212 11.4331 5.58491C11.5503 5.4677 11.7092 5.40186 11.875 5.40186H13.125C13.2908 5.40186 13.4497 5.4677 13.5669 5.58491C13.6842 5.70212 13.75 5.86109 13.75 6.02686V14.7769C13.75 14.9426 13.6842 15.1016 13.5669 15.2188C13.4497 15.336 13.2908 15.4019 13.125 15.4019H11.875C11.7092 15.4019 11.5503 15.336 11.4331 15.2188C11.3158 15.1016 11.25 14.9426 11.25 14.7769V6.02686ZM15 6.02686C15 5.86109 15.0658 5.70212 15.1831 5.58491C15.3003 5.4677 15.4592 5.40186 15.625 5.40186C15.7908 5.40186 15.9497 5.4677 16.0669 5.58491C16.1842 5.70212 16.25 5.86109 16.25 6.02686V14.7769C16.25 14.9426 16.1842 15.1016 16.0669 15.2188C15.9497 15.336 15.7908 15.4019 15.625 15.4019C15.4592 15.4019 15.3003 15.336 15.1831 15.2188C15.0658 15.1016 15 14.9426 15 14.7769V6.02686Z" fill="#7367F0"/>
</svg>
