<svg width="59" height="45" viewBox="0 0 59 45" fill="none" xmlns="http://www.w3.org/2000/svg">
<path d="M54.1791 13.1792L41.6666 25.6917L37.8749 21.9292L33.7624 26.0708L41.6374 33.9458L58.3207 17.3208L54.1791 13.1792ZM6.66658 12.3333C6.63067 13.8752 6.90789 15.4084 7.48147 16.8401C8.05506 18.2718 8.9131 19.5723 10.0037 20.6629C11.0943 21.7535 12.3948 22.6115 13.8265 23.1851C15.2582 23.7587 16.7913 24.0359 18.3333 24C19.8752 24.0359 21.4083 23.7587 22.84 23.1851C24.2717 22.6115 25.5722 21.7535 26.6628 20.6629C27.7534 19.5723 28.6114 18.2718 29.185 16.8401C29.7586 15.4084 30.0358 13.8752 29.9999 12.3333C30.0358 10.7914 29.7586 9.25825 29.185 7.82655C28.6114 6.39484 27.7534 5.09437 26.6628 4.00378C25.5722 2.91319 24.2717 2.05515 22.84 1.48156C21.4083 0.907968 19.8752 0.630748 18.3333 0.666668C16.7913 0.630748 15.2582 0.907968 13.8265 1.48156C12.3948 2.05515 11.0943 2.91319 10.0037 4.00378C8.9131 5.09437 8.05506 6.39484 7.48147 7.82655C6.90789 9.25825 6.63067 10.7914 6.66658 12.3333ZM24.1666 12.3333C24.2041 13.1093 24.0789 13.8846 23.799 14.6093C23.5191 15.334 23.0908 15.9922 22.5414 16.5415C21.9921 17.0908 21.3339 17.5192 20.6092 17.7991C19.8845 18.079 19.1092 18.2042 18.3333 18.1667C17.5573 18.2042 16.782 18.079 16.0573 17.7991C15.3326 17.5192 14.6744 17.0908 14.1251 16.5415C13.5757 15.9922 13.1474 15.334 12.8675 14.6093C12.5876 13.8846 12.4624 13.1093 12.4999 12.3333C12.4624 11.5574 12.5876 10.7821 12.8675 10.0574C13.1474 9.33267 13.5757 8.6745 14.1251 8.12516C14.6744 7.57582 15.3326 7.14745 16.0573 6.86757C16.782 6.58769 17.5573 6.46249 18.3333 6.5C19.1092 6.46249 19.8845 6.58769 20.6092 6.86757C21.3339 7.14745 21.9921 7.57582 22.5414 8.12516C23.0908 8.6745 23.5191 9.33267 23.799 10.0574C24.0789 10.7821 24.2041 11.5574 24.1666 12.3333ZM6.66658 41.5C6.66658 39.1794 7.58846 36.9538 9.2294 35.3128C10.8703 33.6719 13.0959 32.75 15.4166 32.75H21.2499C23.5706 32.75 25.7962 33.6719 27.4371 35.3128C29.078 36.9538 29.9999 39.1794 29.9999 41.5V44.4167H35.8333V41.5C35.8333 39.5849 35.456 37.6885 34.7232 35.9192C33.9903 34.1499 32.9161 32.5422 31.5619 31.188C30.2077 29.8338 28.6 28.7596 26.8307 28.0268C25.0614 27.2939 23.165 26.9167 21.2499 26.9167H15.4166C11.5488 26.9167 7.83952 28.4531 5.10461 31.188C2.36971 33.9229 0.833252 37.6323 0.833252 41.5V44.4167H6.66658V41.5Z" fill="white"/>
</svg>
