<svg width="54" height="57" viewBox="0 0 54 57" fill="none" xmlns="http://www.w3.org/2000/svg">
<path d="M27 0.833313C24.1157 0.833313 21.2962 1.68861 18.8979 3.29105C16.4997 4.89349 14.6305 7.17109 13.5268 9.83585C12.423 12.5006 12.1342 15.4328 12.6969 18.2617C13.2596 21.0906 14.6485 23.6891 16.688 25.7286C18.7275 27.7681 21.326 29.1571 24.1549 29.7198C26.9838 30.2825 29.916 29.9937 32.5808 28.8899C35.2456 27.7861 37.5232 25.9169 39.1256 23.5187C40.728 21.1205 41.5833 18.301 41.5833 15.4166C41.5833 11.5489 40.0469 7.83958 37.312 5.10467C34.5771 2.36977 30.8677 0.833313 27 0.833313ZM27 24.1666C25.2694 24.1666 23.5777 23.6535 22.1388 22.692C20.6998 21.7305 19.5783 20.364 18.9161 18.7651C18.2538 17.1663 18.0805 15.4069 18.4181 13.7096C18.7557 12.0123 19.5891 10.4532 20.8128 9.22946C22.0365 8.00575 23.5956 7.1724 25.293 6.83478C26.9903 6.49716 28.7496 6.67043 30.3485 7.3327C31.9473 7.99497 33.3139 9.11648 34.2754 10.5554C35.2368 11.9943 35.75 13.6861 35.75 15.4166C35.75 17.7373 34.8281 19.9629 33.1872 21.6038C31.5462 23.2448 29.3206 24.1666 27 24.1666ZM53.25 56.25V53.3333C53.25 47.9185 51.099 42.7254 47.2701 38.8966C43.4412 35.0677 38.2482 32.9166 32.8333 32.9166H21.1667C15.7518 32.9166 10.5588 35.0677 6.7299 38.8966C2.90104 42.7254 0.75 47.9185 0.75 53.3333V56.25H6.58333V53.3333C6.58333 49.4656 8.11979 45.7562 10.8547 43.0213C13.5896 40.2864 17.2989 38.75 21.1667 38.75H32.8333C36.7011 38.75 40.4104 40.2864 43.1453 43.0213C45.8802 45.7562 47.4167 49.4656 47.4167 53.3333V56.25H53.25Z" fill="white"/>
</svg>
