<svg width="70" height="70" viewBox="0 0 70 70" fill="none" xmlns="http://www.w3.org/2000/svg">
<path d="M61.2499 32.0833H52.4999V11.6667C52.4999 10.8931 52.1926 10.1513 51.6456 9.60427C51.0987 9.05729 50.3568 8.75 49.5832 8.75H8.74992C7.97637 8.75 7.2345 9.05729 6.68752 9.60427C6.14054 10.1513 5.83325 10.8931 5.83325 11.6667V52.5C5.83325 57.3242 9.75908 61.25 14.5833 61.25H55.4166C60.2407 61.25 64.1666 57.3242 64.1666 52.5V35C64.1666 34.2265 63.8593 33.4846 63.3123 32.9376C62.7653 32.3906 62.0235 32.0833 61.2499 32.0833ZM14.5833 55.4167C13.8097 55.4167 13.0678 55.1094 12.5209 54.5624C11.9739 54.0154 11.6666 53.2735 11.6666 52.5V14.5833H46.6666V52.5C46.6666 53.5238 46.8445 54.5067 47.1653 55.4167H14.5833ZM58.3332 52.5C58.3332 53.2735 58.026 54.0154 57.479 54.5624C56.932 55.1094 56.1901 55.4167 55.4166 55.4167C54.643 55.4167 53.9012 55.1094 53.3542 54.5624C52.8072 54.0154 52.4999 53.2735 52.4999 52.5V37.9167H58.3332V52.5Z" fill="white"/>
<path d="M17.5 20.4167H40.8333V26.25H17.5V20.4167ZM17.5 32.0834H40.8333V37.9167H17.5V32.0834ZM32.0833 43.75H40.8333V49.5834H32.0833V43.75Z" fill="white"/>
</svg>
