<svg width="10" height="11" viewBox="0 0 10 11" fill="none" xmlns="http://www.w3.org/2000/svg">
<path d="M4 2.5H6C6 2.23478 5.89464 1.98043 5.70711 1.79289C5.51957 1.60536 5.26522 1.5 5 1.5C4.73478 1.5 4.48043 1.60536 4.29289 1.79289C4.10536 1.98043 4 2.23478 4 2.5ZM3.25 2.5C3.25 2.27019 3.29526 2.04262 3.38321 1.8303C3.47116 1.61798 3.60006 1.42507 3.76256 1.26256C3.92507 1.10006 4.11798 0.971157 4.3303 0.883211C4.54262 0.795265 4.77019 0.75 5 0.75C5.22981 0.75 5.45738 0.795265 5.6697 0.883211C5.88201 0.971157 6.07493 1.10006 6.23744 1.26256C6.39994 1.42507 6.52884 1.61798 6.61679 1.8303C6.70473 2.04262 6.75 2.27019 6.75 2.5H9.625C9.72445 2.5 9.81984 2.53951 9.89016 2.60984C9.96049 2.68016 10 2.77554 10 2.875C10 2.97446 9.96049 3.06984 9.89016 3.14017C9.81984 3.21049 9.72445 3.25 9.625 3.25H8.965L8.38 9.3055C8.33512 9.76949 8.11902 10.2001 7.77384 10.5134C7.42866 10.8267 6.97915 11.0002 6.513 11H3.487C3.02093 11.0001 2.57155 10.8265 2.22647 10.5132C1.8814 10.2 1.66537 9.7694 1.6205 9.3055L1.035 3.25H0.375C0.275544 3.25 0.180161 3.21049 0.109835 3.14017C0.0395088 3.06984 0 2.97446 0 2.875C0 2.77554 0.0395088 2.68016 0.109835 2.60984C0.180161 2.53951 0.275544 2.5 0.375 2.5H3.25ZM4.25 4.875C4.25 4.77554 4.21049 4.68016 4.14016 4.60984C4.06984 4.53951 3.97446 4.5 3.875 4.5C3.77554 4.5 3.68016 4.53951 3.60983 4.60984C3.53951 4.68016 3.5 4.77554 3.5 4.875V8.625C3.5 8.72446 3.53951 8.81984 3.60983 8.89017C3.68016 8.96049 3.77554 9 3.875 9C3.97446 9 4.06984 8.96049 4.14016 8.89017C4.21049 8.81984 4.25 8.72446 4.25 8.625V4.875ZM6.125 4.5C6.22446 4.5 6.31984 4.53951 6.39016 4.60984C6.46049 4.68016 6.5 4.77554 6.5 4.875V8.625C6.5 8.72446 6.46049 8.81984 6.39016 8.89017C6.31984 8.96049 6.22446 9 6.125 9C6.02554 9 5.93016 8.96049 5.85983 8.89017C5.78951 8.81984 5.75 8.72446 5.75 8.625V4.875C5.75 4.77554 5.78951 4.68016 5.85983 4.60984C5.93016 4.53951 6.02554 4.5 6.125 4.5ZM2.367 9.2335C2.39397 9.51182 2.52362 9.77013 2.73068 9.95806C2.93775 10.146 3.20737 10.2501 3.487 10.25H6.513C6.79263 10.2501 7.06225 10.146 7.26931 9.95806C7.47638 9.77013 7.60603 9.51182 7.633 9.2335L8.212 3.25H1.788L2.367 9.2335Z" fill="#EA5455"/>
</svg>
