<svg width="25" height="24" viewBox="0 0 25 24" fill="none" xmlns="http://www.w3.org/2000/svg">
<path d="M6.04 19.5201C5.43 19.5201 4.86 19.31 4.45 18.92C3.93 18.43 3.68 17.69 3.77 16.89L4.14 13.65C4.21 13.04 4.58 12.23 5.01 11.79L13.22 3.10005C15.27 0.930049 17.41 0.870049 19.58 2.92005C21.75 4.97005 21.81 7.11005 19.76 9.28005L11.55 17.97C11.13 18.42 10.35 18.84 9.74 18.9401L6.52 19.49C6.35 19.5 6.2 19.5201 6.04 19.5201ZM16.43 2.91005C15.66 2.91005 14.99 3.39005 14.31 4.11005L6.1 12.8101C5.9 13.0201 5.67 13.5201 5.63 13.8101L5.26 17.05C5.22 17.38 5.3 17.65 5.48 17.82C5.66 17.99 5.93 18.05 6.26 18L9.48 17.4501C9.77 17.4001 10.25 17.14 10.45 16.93L18.66 8.24005C19.9 6.92005 20.35 5.70005 18.54 4.00005C17.74 3.23005 17.05 2.91005 16.43 2.91005Z" fill="white"/>
<path d="M17.84 10.9498C17.82 10.9498 17.79 10.9498 17.77 10.9498C14.65 10.6398 12.14 8.26985 11.66 5.16985C11.6 4.75985 11.88 4.37985 12.29 4.30985C12.7 4.24985 13.08 4.52985 13.15 4.93985C13.53 7.35985 15.49 9.21985 17.93 9.45985C18.34 9.49985 18.64 9.86985 18.6 10.2798C18.55 10.6598 18.22 10.9498 17.84 10.9498Z" fill="white"/>
<path d="M21.5 22.75H3.5C3.09 22.75 2.75 22.41 2.75 22C2.75 21.59 3.09 21.25 3.5 21.25H21.5C21.91 21.25 22.25 21.59 22.25 22C22.25 22.41 21.91 22.75 21.5 22.75Z" fill="white"/>
</svg>
