<svg width="70" height="70" viewBox="0 0 70 70" fill="none" xmlns="http://www.w3.org/2000/svg">
<path d="M40.8333 19.6877H29.1666C26.3666 19.6877 21.1458 19.6877 21.1458 11.6668C21.1458 3.646 26.3666 3.646 29.1666 3.646H40.8333C43.6333 3.646 48.8541 3.646 48.8541 11.6668C48.8541 14.4668 48.8541 19.6877 40.8333 19.6877ZM29.1666 8.021C26.2791 8.021 25.5208 8.021 25.5208 11.6668C25.5208 15.3127 26.2791 15.3127 29.1666 15.3127H40.8333C44.4791 15.3127 44.4791 14.5543 44.4791 11.6668C44.4791 8.021 43.7208 8.021 40.8333 8.021H29.1666Z" fill="white"/>
<path d="M40.8333 66.3541H26.25C9.85833 66.3541 6.5625 58.8291 6.5625 46.6666V29.1666C6.5625 15.8666 11.375 10.1791 23.2167 9.56663C24.3542 9.5083 25.4625 10.4125 25.5208 11.6375C25.5792 12.8625 24.6458 13.8541 23.45 13.9125C15.1667 14.3791 10.9375 16.8583 10.9375 29.1666V46.6666C10.9375 57.4583 13.0667 61.9791 26.25 61.9791H40.8333C42.0292 61.9791 43.0208 62.9708 43.0208 64.1666C43.0208 65.3625 42.0292 66.3541 40.8333 66.3541Z" fill="white"/>
<path d="M61.25 45.9373C60.0542 45.9373 59.0625 44.9456 59.0625 43.7498V29.1664C59.0625 16.8581 54.8333 14.3789 46.55 13.9123C45.3542 13.8539 44.4208 12.8039 44.4792 11.6081C44.5375 10.4123 45.5875 9.47893 46.7833 9.53726C58.625 10.1789 63.4375 15.8664 63.4375 29.1373V43.7206C63.4375 44.9456 62.4458 45.9373 61.25 45.9373Z" fill="white"/>
<path d="M43.75 57.604C42.5542 57.604 41.5625 56.6123 41.5625 55.4165V46.6665C41.5625 45.4707 42.5542 44.479 43.75 44.479H52.5C53.6958 44.479 54.6875 45.4707 54.6875 46.6665C54.6875 47.8623 53.6958 48.854 52.5 48.854H45.9375V55.4165C45.9375 56.6123 44.9458 57.604 43.75 57.604Z" fill="white"/>
<path d="M61.2501 66.3541C60.6959 66.3541 60.1417 66.1499 59.7042 65.7124L42.3209 48.3291C41.4751 47.4832 41.4751 46.0832 42.3209 45.2374C43.1667 44.3916 44.5667 44.3916 45.4126 45.2374L62.7959 62.6207C63.6417 63.4666 63.6417 64.8666 62.7959 65.7124C62.3584 66.1499 61.8042 66.3541 61.2501 66.3541Z" fill="white"/>
</svg>
