<svg width="70" height="70" viewBox="0 0 70 70" fill="none" xmlns="http://www.w3.org/2000/svg">
<path d="M40.8333 19.6877H29.1666C26.3666 19.6877 21.1458 19.6877 21.1458 11.6668C21.1458 3.646 26.3666 3.646 29.1666 3.646H40.8333C43.6333 3.646 48.8541 3.646 48.8541 11.6668C48.8541 14.4668 48.8541 19.6877 40.8333 19.6877ZM29.1666 8.021C26.2791 8.021 25.5208 8.021 25.5208 11.6668C25.5208 15.3127 26.2791 15.3127 29.1666 15.3127H40.8333C44.4791 15.3127 44.4791 14.5543 44.4791 11.6668C44.4791 8.021 43.7208 8.021 40.8333 8.021H29.1666Z" fill="white"/>
<path d="M40.8333 66.3541H26.25C9.85833 66.3541 6.5625 58.8291 6.5625 46.6666V29.1666C6.5625 15.8666 11.375 10.1791 23.2167 9.56663C24.3833 9.5083 25.4625 10.4125 25.5208 11.6375C25.5792 12.8625 24.6458 13.8541 23.45 13.9125C15.1667 14.3791 10.9375 16.8583 10.9375 29.1666V46.6666C10.9375 57.4583 13.0667 61.9791 26.25 61.9791H40.8333C42.0292 61.9791 43.0208 62.9708 43.0208 64.1666C43.0208 65.3625 42.0292 66.3541 40.8333 66.3541Z" fill="white"/>
<path d="M61.25 45.9373C60.0542 45.9373 59.0625 44.9456 59.0625 43.7498V29.1664C59.0625 16.8581 54.8333 14.3789 46.55 13.9123C45.3542 13.8539 44.4208 12.8039 44.4792 11.6081C44.5375 10.4123 45.6167 9.47893 46.7833 9.53726C58.625 10.1789 63.4375 15.8664 63.4375 29.1373V43.7206C63.4375 44.9456 62.4458 45.9373 61.25 45.9373Z" fill="white"/>
<path d="M61.25 66.354H52.5C51.3042 66.354 50.3125 65.3623 50.3125 64.1665C50.3125 62.9707 51.3042 61.979 52.5 61.979H59.0625V55.4165C59.0625 54.2207 60.0542 53.229 61.25 53.229C62.4458 53.229 63.4375 54.2207 63.4375 55.4165V64.1665C63.4375 65.3623 62.4458 66.354 61.25 66.354Z" fill="white"/>
<path d="M61.1334 66.2374C60.5792 66.2374 60.025 66.0332 59.5875 65.5957L42.2042 48.2124C41.3584 47.3665 41.3584 45.9665 42.2042 45.1207C43.05 44.2749 44.45 44.2749 45.2959 45.1207L62.6792 62.504C63.525 63.3499 63.525 64.7499 62.6792 65.5957C62.2417 66.004 61.6875 66.2374 61.1334 66.2374Z" fill="white"/>
</svg>
