<svg width="18" height="18" viewBox="0 0 18 18" fill="none" xmlns="http://www.w3.org/2000/svg">
<path d="M13.0078 14.5078C13.3464 14.1693 13.737 14 14.1797 14C14.6224 14 15 14.1693 15.3125 14.5078C15.651 14.8464 15.8203 15.237 15.8203 15.6797C15.8203 16.1224 15.651 16.513 15.3125 16.8516C15 17.1641 14.6224 17.3203 14.1797 17.3203C13.737 17.3203 13.3464 17.1641 13.0078 16.8516C12.6693 16.513 12.5 16.1224 12.5 15.6797C12.5 15.237 12.6693 14.8464 13.0078 14.5078ZM0.820312 0.679688H3.55469L4.33594 2.32031H16.6797C16.9141 2.32031 17.1094 2.41146 17.2656 2.59375C17.4219 2.75 17.5 2.94531 17.5 3.17969C17.5 3.20573 17.4609 3.33594 17.3828 3.57031L14.4141 8.96094C14.1016 9.53385 13.6198 9.82031 12.9688 9.82031H6.75781L6.01562 11.1875L5.97656 11.3047C5.97656 11.4349 6.04167 11.5 6.17188 11.5H15.8203V13.1797H5.82031C5.3776 13.1797 4.98698 13.0104 4.64844 12.6719C4.33594 12.3333 4.17969 11.9427 4.17969 11.5C4.17969 11.2396 4.24479 10.9792 4.375 10.7188L5.50781 8.64844L2.5 2.32031H0.820312V0.679688ZM4.64844 14.5078C4.98698 14.1693 5.3776 14 5.82031 14C6.26302 14 6.65365 14.1693 6.99219 14.5078C7.33073 14.8464 7.5 15.237 7.5 15.6797C7.5 16.1224 7.33073 16.513 6.99219 16.8516C6.65365 17.1641 6.26302 17.3203 5.82031 17.3203C5.3776 17.3203 4.98698 17.1641 4.64844 16.8516C4.33594 16.513 4.17969 16.1224 4.17969 15.6797C4.17969 15.237 4.33594 14.8464 4.64844 14.5078Z" fill="white"/>
</svg>
