<svg width="18" height="18" viewBox="0 0 18 18" fill="none" xmlns="http://www.w3.org/2000/svg">
<path d="M6.92969 11.0703C7.5026 11.6432 8.19271 11.9297 9 11.9297C9.80729 11.9297 10.4974 11.6432 11.0703 11.0703C11.6432 10.4974 11.9297 9.80729 11.9297 9C11.9297 8.19271 11.6432 7.5026 11.0703 6.92969C10.4974 6.35677 9.80729 6.07031 9 6.07031C8.19271 6.07031 7.5026 6.35677 6.92969 6.92969C6.35677 7.5026 6.07031 8.19271 6.07031 9C6.07031 9.80729 6.35677 10.4974 6.92969 11.0703ZM15.2109 9.82031L16.9688 11.1875C17.151 11.3177 17.1771 11.5 17.0469 11.7344L15.3672 14.625C15.263 14.8073 15.0938 14.8594 14.8594 14.7812L12.7891 13.9609C12.2422 14.3516 11.7734 14.625 11.3828 14.7812L11.0703 16.9688C11.0182 17.2031 10.888 17.3203 10.6797 17.3203H7.32031C7.11198 17.3203 6.98177 17.2031 6.92969 16.9688L6.61719 14.7812C6.1224 14.5729 5.65365 14.2995 5.21094 13.9609L3.14062 14.7812C2.90625 14.8594 2.73698 14.8073 2.63281 14.625L0.953125 11.7344C0.822917 11.5 0.848958 11.3177 1.03125 11.1875L2.78906 9.82031C2.76302 9.63802 2.75 9.36458 2.75 9C2.75 8.63542 2.76302 8.36198 2.78906 8.17969L1.03125 6.8125C0.848958 6.68229 0.822917 6.5 0.953125 6.26562L2.63281 3.375C2.73698 3.19271 2.90625 3.14062 3.14062 3.21875L5.21094 4.03906C5.75781 3.64844 6.22656 3.375 6.61719 3.21875L6.92969 1.03125C6.98177 0.796875 7.11198 0.679688 7.32031 0.679688H10.6797C10.888 0.679688 11.0182 0.796875 11.0703 1.03125L11.3828 3.21875C11.8776 3.42708 12.3464 3.70052 12.7891 4.03906L14.8594 3.21875C15.0938 3.14062 15.263 3.19271 15.3672 3.375L17.0469 6.26562C17.1771 6.5 17.151 6.68229 16.9688 6.8125L15.2109 8.17969C15.237 8.36198 15.25 8.63542 15.25 9C15.25 9.36458 15.237 9.63802 15.2109 9.82031Z" fill="white"/>
</svg>
