<svg width="25" height="24" viewBox="0 0 25 24" fill="none" xmlns="http://www.w3.org/2000/svg">
<path d="M21.5 6.72998C21.48 6.72998 21.45 6.72998 21.42 6.72998C16.13 6.19998 10.85 5.99998 5.62001 6.52998L3.58001 6.72998C3.16001 6.76998 2.79001 6.46998 2.75001 6.04998C2.71001 5.62998 3.01001 5.26998 3.42001 5.22998L5.46001 5.02998C10.78 4.48998 16.17 4.69998 21.57 5.22998C21.98 5.26998 22.28 5.63998 22.24 6.04998C22.21 6.43998 21.88 6.72998 21.5 6.72998Z" fill="white"/>
<path d="M8.99999 5.72C8.95999 5.72 8.91999 5.72 8.86999 5.71C8.46999 5.64 8.18999 5.25 8.25999 4.85L8.47999 3.54C8.63999 2.58 8.85999 1.25 11.19 1.25H13.81C16.15 1.25 16.37 2.63 16.52 3.55L16.74 4.85C16.81 5.26 16.53 5.65 16.13 5.71C15.72 5.78 15.33 5.5 15.27 5.1L15.05 3.8C14.91 2.93 14.88 2.76 13.82 2.76H11.2C10.14 2.76 10.12 2.9 9.96999 3.79L9.73999 5.09C9.67999 5.46 9.35999 5.72 8.99999 5.72Z" fill="white"/>
<path d="M15.71 22.7501H9.29001C5.80001 22.7501 5.66001 20.8201 5.55001 19.2601L4.90001 9.19007C4.87001 8.78007 5.19001 8.42008 5.60001 8.39008C6.02001 8.37008 6.37001 8.68008 6.40001 9.09008L7.05001 19.1601C7.16001 20.6801 7.20001 21.2501 9.29001 21.2501H15.71C17.81 21.2501 17.85 20.6801 17.95 19.1601L18.6 9.09008C18.63 8.68008 18.99 8.37008 19.4 8.39008C19.81 8.42008 20.13 8.77007 20.1 9.19007L19.45 19.2601C19.34 20.8201 19.2 22.7501 15.71 22.7501Z" fill="white"/>
<path d="M14.16 17.25H10.83C10.42 17.25 10.08 16.91 10.08 16.5C10.08 16.09 10.42 15.75 10.83 15.75H14.16C14.57 15.75 14.91 16.09 14.91 16.5C14.91 16.91 14.57 17.25 14.16 17.25Z" fill="white"/>
<path d="M15 13.25H10C9.59 13.25 9.25 12.91 9.25 12.5C9.25 12.09 9.59 11.75 10 11.75H15C15.41 11.75 15.75 12.09 15.75 12.5C15.75 12.91 15.41 13.25 15 13.25Z" fill="white"/>
</svg>
