<svg width="70" height="70" viewBox="0 0 70 70" fill="none" xmlns="http://www.w3.org/2000/svg">
<path d="M52.4995 23.0707C52.412 23.0707 52.3537 23.0707 52.2662 23.0707H52.1204C46.6079 22.8957 42.4954 18.6373 42.4954 13.3873C42.4954 8.02064 46.8704 3.6748 52.2079 3.6748C57.5454 3.6748 61.9204 8.04981 61.9204 13.3873C61.8912 18.6665 57.7787 22.9248 52.5287 23.0998C52.5287 23.0707 52.5287 23.0707 52.4995 23.0707ZM52.2079 8.02065C49.262 8.02065 46.8704 10.4123 46.8704 13.3582C46.8704 16.2457 49.1162 18.579 52.0037 18.6957C52.0329 18.6665 52.2662 18.6665 52.5287 18.6957C55.3579 18.5498 57.5454 16.2165 57.5745 13.3582C57.5745 10.4123 55.1829 8.02065 52.2079 8.02065Z" fill="white"/>
<path d="M52.5291 44.5666C51.3916 44.5666 50.2541 44.4791 49.1166 44.2749C47.9208 44.0707 47.1333 42.9332 47.3375 41.7374C47.5416 40.5416 48.6791 39.7541 49.875 39.9582C53.4625 40.5707 57.2541 39.8999 59.7916 38.2083C61.1625 37.3041 61.8916 36.1666 61.8916 35.0291C61.8916 33.8916 61.1333 32.7832 59.7916 31.8791C57.2541 30.1874 53.4041 29.5166 49.7875 30.1582C48.5916 30.3916 47.4541 29.5749 47.25 28.3791C47.0458 27.1832 47.8333 26.0457 49.0291 25.8416C53.7833 24.9957 58.7125 25.8999 62.2125 28.2332C64.7791 29.9541 66.2666 32.4041 66.2666 35.0291C66.2666 37.6249 64.8083 40.1041 62.2125 41.8541C59.5583 43.6041 56.1166 44.5666 52.5291 44.5666Z" fill="white"/>
<path d="M17.4124 23.071C17.3832 23.071 17.3541 23.071 17.3541 23.071C12.1041 22.896 7.99157 18.6377 7.9624 13.3877C7.9624 8.02099 12.3374 3.646 17.6749 3.646C23.0124 3.646 27.3874 8.021 27.3874 13.3585C27.3874 18.6377 23.2749 22.896 18.0249 23.071L17.4124 20.8835L17.6166 23.071C17.5582 23.071 17.4707 23.071 17.4124 23.071ZM17.7041 18.696C17.8791 18.696 18.0249 18.696 18.1999 18.7252C20.7957 18.6085 23.0707 16.2752 23.0707 13.3877C23.0707 10.4418 20.6791 8.05015 17.7332 8.05015C14.7874 8.05015 12.3957 10.4418 12.3957 13.3877C12.3957 16.246 14.6124 18.5502 17.4416 18.7252C17.4707 18.696 17.5874 18.696 17.7041 18.696Z" fill="white"/>
<path d="M17.3832 44.5666C13.7957 44.5666 10.3541 43.6041 7.69992 41.8541C5.13325 40.1333 3.64575 37.6541 3.64575 35.0291C3.64575 32.4332 5.13325 29.9541 7.69992 28.2332C11.1999 25.8999 16.1291 24.9957 20.8833 25.8416C22.0791 26.0457 22.8666 27.1832 22.6624 28.3791C22.4583 29.5749 21.3208 30.3916 20.1249 30.1582C16.5083 29.5166 12.6874 30.1874 10.1208 31.8791C8.74992 32.7832 8.02075 33.8916 8.02075 35.0291C8.02075 36.1666 8.77909 37.3041 10.1208 38.2083C12.6583 39.8999 16.4499 40.5707 20.0374 39.9582C21.2332 39.7541 22.3708 40.5707 22.5749 41.7374C22.7791 42.9332 21.9916 44.0707 20.7958 44.2749C19.6583 44.4791 18.5207 44.5666 17.3832 44.5666Z" fill="white"/>
<path d="M34.9995 44.8583C34.912 44.8583 34.8537 44.8583 34.7662 44.8583H34.6204C29.1079 44.6833 24.9954 40.4249 24.9954 35.1749C24.9954 29.8082 29.3704 25.4624 34.7079 25.4624C40.0454 25.4624 44.4204 29.8374 44.4204 35.1749C44.3912 40.4541 40.2787 44.7124 35.0287 44.8874C35.0287 44.8582 35.0287 44.8583 34.9995 44.8583ZM34.7079 29.8083C31.762 29.8083 29.3704 32.1999 29.3704 35.1458C29.3704 38.0333 31.6162 40.3666 34.5037 40.4833C34.5329 40.4541 34.7662 40.4541 35.0287 40.4833C37.8579 40.3374 40.0454 38.0041 40.0745 35.1458C40.0745 32.2291 37.6829 29.8083 34.7079 29.8083Z" fill="white"/>
<path d="M34.9993 66.3831C31.4993 66.3831 27.9993 65.479 25.2868 63.6415C22.7202 61.9206 21.2327 59.4706 21.2327 56.8456C21.2327 54.2498 22.691 51.7414 25.2868 50.0206C30.741 46.4039 39.2868 46.4039 44.7118 50.0206C47.2785 51.7414 48.766 54.1914 48.766 56.8164C48.766 59.4123 47.3077 61.9206 44.7118 63.6415C41.9993 65.4498 38.4993 66.3831 34.9993 66.3831ZM27.7077 53.6956C26.3368 54.5998 25.6077 55.7373 25.6077 56.8748C25.6077 58.0123 26.366 59.1206 27.7077 60.0248C31.6452 62.679 38.3243 62.679 42.2618 60.0248C43.6327 59.1206 44.3618 57.9831 44.3618 56.8456C44.3618 55.7081 43.6035 54.5998 42.2618 53.6956C38.3535 51.0415 31.6743 51.0706 27.7077 53.6956Z" fill="white"/>
</svg>
