<svg width="70" height="70" viewBox="0 0 70 70" fill="none" xmlns="http://www.w3.org/2000/svg">
<path d="M26.7155 33.8918C26.628 33.8918 26.5697 33.8918 26.4822 33.8918C26.3363 33.8627 26.1322 33.8627 25.9572 33.8918C17.4988 33.6293 11.1113 26.9793 11.1113 18.7835C11.1113 10.4418 17.9072 3.646 26.2488 3.646C34.5905 3.646 41.3863 10.4418 41.3863 18.7835C41.3572 26.9793 34.9405 33.6293 26.803 33.8918C26.7738 33.8918 26.7447 33.8918 26.7155 33.8918ZM26.2488 8.021C20.328 8.021 15.4863 12.8627 15.4863 18.7835C15.4863 24.6168 20.0363 29.3127 25.8405 29.5168C26.0155 29.4877 26.3947 29.4877 26.7738 29.5168C32.4905 29.2543 36.9822 24.5585 37.0113 18.7835C37.0113 12.8627 32.1697 8.021 26.2488 8.021Z" fill="white"/>
<path d="M48.2404 34.2707C48.1529 34.2707 48.0654 34.2707 47.9779 34.2415C46.7821 34.3582 45.5571 33.5123 45.4404 32.3165C45.3238 31.1207 46.0529 30.0415 47.2488 29.8957C47.5988 29.8665 47.9779 29.8665 48.2988 29.8665C52.5571 29.6332 55.8821 26.1332 55.8821 21.8457C55.8821 17.4123 52.2946 13.8248 47.8613 13.8248C46.6654 13.854 45.6738 12.8623 45.6738 11.6665C45.6738 10.4707 46.6654 9.479 47.8613 9.479C54.6863 9.479 60.2571 15.0498 60.2571 21.8748C60.2571 28.5832 55.0071 34.0082 48.3279 34.2707C48.2988 34.2707 48.2696 34.2707 48.2404 34.2707Z" fill="white"/>
<path d="M26.7447 65.7707C21.028 65.7707 15.2822 64.3123 10.9364 61.3957C6.88219 58.7123 4.66553 55.0373 4.66553 51.0415C4.66553 47.0457 6.88219 43.3415 10.9364 40.629C19.6864 34.8248 33.8614 34.8248 42.553 40.629C46.578 43.3123 48.8239 46.9873 48.8239 50.9832C48.8239 54.979 46.6072 58.6832 42.553 61.3957C38.178 64.3123 32.4614 65.7707 26.7447 65.7707ZM13.3572 44.304C10.5572 46.1707 9.04053 48.5623 9.04053 51.0707C9.04053 53.5498 10.5864 55.9415 13.3572 57.779C20.6197 62.6498 32.8697 62.6498 40.1322 57.779C42.9322 55.9123 44.4489 53.5207 44.4489 51.0123C44.4489 48.5332 42.903 46.1415 40.1322 44.304C32.8697 39.4623 20.6197 39.4623 13.3572 44.304Z" fill="white"/>
<path d="M53.4904 60.5209C52.4696 60.5209 51.5654 59.8209 51.3613 58.7709C51.1279 57.575 51.8863 56.4375 53.0529 56.175C54.8904 55.7959 56.5821 55.0667 57.8946 54.0459C59.5571 52.7917 60.4613 51.2167 60.4613 49.5542C60.4613 47.8917 59.5571 46.3167 57.9238 45.0917C56.6404 44.1001 55.0363 43.4001 53.1404 42.9626C51.9738 42.7001 51.2154 41.5334 51.4779 40.3376C51.7404 39.1709 52.9071 38.4126 54.1029 38.6751C56.6113 39.2292 58.7988 40.2209 60.5779 41.5917C63.2904 43.6334 64.8363 46.5209 64.8363 49.5542C64.8363 52.5876 63.2613 55.475 60.5488 57.5459C58.7404 58.9459 56.4654 59.9667 53.9571 60.4625C53.7821 60.5209 53.6363 60.5209 53.4904 60.5209Z" fill="white"/>
</svg>
